# xmcd
#
# Track frame offsets:
#	150
#	16083
#	29073
#	45764
#	61068
#	78136
#	94489
#	114452
#	126466
#	146476
#	168347
#	184344
#	199818
#	217208
#	233242
#	250900
#	265821
#	281830
#	299524
#	315455
#	332905
#
# Disc length: 4680 seconds
# Revision: 0
# Processed by: cddbd v1.5.2PL0 Copyright (c) Steve Scherf et al.
# Submitted via: dBpowerAMP V12.0
#
DISCID=3e124615
DTITLE=Shania Twain - Way Wicked
DYEAR=1900
DGENRE=Rock/Pop
TTITLE0=You're Still the One
TTITLE1=Come on Over
TTITLE2=The Heart Is Blind
TTITLE3=It's Alright
TTITLE4=Don't Give Me That
TTITLE5=When
TTITLE6=Rock This Country
TTITLE7=Love
TTITLE8=Lost My Heart
TTITLE9=From This Moment on
TTITLE10=Honey, I'm Home
TTITLE11=I'm Holding on to Love
TTITLE12=Rythmn Made Me Do It
TTITLE13=Wild and Wicked
TTITLE14=That Don't Impress Me Much
TTITLE15=You've Got a Way
TTITLE16=Don't Be Stupid
TTITLE17=Send It With Love
TTITLE18=Love Gets Me Every Time
TTITLE19=Man! I Feeel Like a Woman!
TTITLE20=Hate To Love
EXTD=
EXTT0=
EXTT1=
EXTT2=
EXTT3=
EXTT4=
EXTT5=
EXTT6=
EXTT7=
EXTT8=
EXTT9=
EXTT10=
EXTT11=
EXTT12=
EXTT13=
EXTT14=
EXTT15=
EXTT16=
EXTT17=
EXTT18=
EXTT19=
EXTT20=
PLAYORDER=
